<?xml version="1.0" encoding="UTF-8" standalone="no"?>
<svg width="24px" height="20px" viewBox="0 0 24 20" version="1.1" xmlns="http://www.w3.org/2000/svg" xmlns:xlink="http://www.w3.org/1999/xlink" xmlns:sketch="http://www.bohemiancoding.com/sketch/ns">
    <!-- Generator: Sketch 3.1.1 (8761) - http://www.bohemiancoding.com/sketch -->
    <title>Shape</title>
    <desc>Created with Sketch.</desc>
    <defs></defs>
    <g id="Page-1" stroke="none" stroke-width="1" fill="none" fill-rule="evenodd" sketch:type="MSPage">
        <path d="M21.0936557,0.000451537263 C20.4448607,-0.00936845444 18.9377494,0.215991355 16.42146,1.9391699 C15.0500421,1.58847019 13.5908593,1.41541034 12.1291745,1.41541034 C10.5209089,1.41541034 8.89565712,1.62437016 7.38000386,2.0497898 C3.76731901,-0.471948063 2.17271651,0.0448314997 2.17271651,0.0448314997 C1.13169689,2.70848925 1.77499925,4.68058758 1.97052516,5.17036717 C0.746958651,6.52152602 2.84217094e-14,8.24690457 2.84217094e-14,10.3615428 C2.84217094e-14,11.9579814 0.177582021,13.3898602 0.611441188,14.6345992 C0.63550321,14.7306591 0.627704066,14.7092391 0.668243979,14.791479 C0.763827477,15.0491588 0.870103036,15.2992786 0.989553089,15.5408384 C1.03048394,15.6277583 1.06774,15.6920983 1.06774,15.6920983 C2.28735807,18.0182363 4.69162512,19.520855 8.96938738,19.9926546 L15.4392565,20.0001546 C20.0013064,19.537275 22.1904226,18.0301763 23.1991901,15.6883383 L23.2633229,15.5358384 C23.3589064,15.2992786 23.4422341,15.0531388 23.670149,14.2245995 C23.8980443,13.3960602 24,11.9611614 24,10.3609028 C24,8.06580472 23.157536,6.22936627 21.7894215,4.83222745 C22.0284975,4.04262812 22.3478715,2.2890696 21.4705557,0.0441915003 C21.4705557,0.0441915003 21.3475481,0.00429153402 21.0936752,0.00043153728 L21.0936557,0.000451537263 Z M15.9950873,8.42280442 C17.0485191,8.42046442 17.9508742,8.60552426 18.6283638,9.33278365 L18.6283638,9.33340365 C19.4760858,10.2442229 19.9721817,11.3439019 19.9721817,12.5289609 C19.9721817,18.0621163 16.4941934,18.2126161 12.2043122,18.2126161 C7.91368817,18.2126161 4.43644259,17.4458968 4.43644259,12.5289609 C4.43644259,11.3517419 4.92528671,10.2586429 5.76255124,9.35152363 C7.15918448,7.83972491 9.52265751,8.64028423 12.2043317,8.64028423 C13.5808709,8.64006423 14.873711,8.42528442 15.9951263,8.42278442 L15.9950873,8.42280442 Z M8.00424816,10.052163 C7.11162729,10.052163 6.38798788,11.286982 6.38798788,12.8108807 C6.38798788,14.3349994 7.1115882,15.5702184 8.00424816,15.5702184 C8.89686902,15.5702184 9.62050843,14.3349994 9.62050843,12.8108807 C9.62050843,11.287202 8.89690811,10.053263 8.00424816,10.052163 L8.00424816,10.052163 Z M16.6761343,10.052163 C15.7835135,10.052163 15.0598741,11.286982 15.0598741,12.8108807 C15.0598741,14.3349994 15.7834744,15.5702184 16.6761343,15.5702184 C17.5687552,15.5702184 18.2923946,14.3349994 18.2923946,12.8108807 C18.2923946,11.287202 17.5687943,10.053263 16.6761343,10.052163 L16.6761343,10.052163 Z" id="Shape" fill="#FFFFFF" sketch:type="MSShapeGroup"></path>
    </g>
</svg>